<?xml version="1.0" encoding="UTF-8"?>
<svg enable-background="new 0 0 212.982 212.982" version="1.1" viewBox="0 0 212.982 212.982" xml:space="preserve" xmlns="http://www.w3.org/2000/svg">
	<path d="m131.8 106.49l75.936-75.936c6.99-6.99 6.99-18.323 0-25.312-6.99-6.99-18.322-6.99-25.312 0l-75.937 75.937-75.937-75.938c-6.99-6.99-18.322-6.99-25.312 0-6.989 6.99-6.989 18.323 0 25.312l75.937 75.936-75.937 75.937c-6.989 6.99-6.989 18.323 0 25.312 6.99 6.99 18.322 6.99 25.312 0l75.937-75.937 75.937 75.937c6.989 6.99 18.322 6.99 25.312 0s6.99-18.322 0-25.312l-75.936-75.936z" clip-rule="evenodd" fill-rule="evenodd"/>
</svg>
