<?xml version="1.0" encoding="UTF-8"?>
<svg enable-background="new 0 0 480 480" version="1.1" viewBox="0 0 480 480" xml:space="preserve" xmlns="http://www.w3.org/2000/svg">
<path d="m229.47 348.03c6.048 5.28 15.04 5.28 21.088 0l126.5-110.75c6.656-5.824 7.328-15.968 1.472-22.592l-21.088-24c-5.824-6.624-15.904-7.264-22.56-1.472l-62.88 55.104v-228.32c0-8.832-7.168-16-16-16h-32c-8.832 0-16 7.168-16 16v228.32l-62.88-55.104c-6.624-5.792-16.704-5.152-22.56 1.472l-21.088 23.968c-5.856 6.656-5.184 16.8 1.472 22.624l126.53 110.75z" fill="#4CAF50"/>
<path d="m416 416h-352c-8.832 0-16 7.168-16 16v32c0 8.832 7.168 16 16 16h352c8.832 0 16-7.168 16-16v-32c0-8.832-7.168-16-16-16z" fill="#607D8B"/>
</svg>