<?xml version="1.0" encoding="UTF-8"?>
<!DOCTYPE svg  PUBLIC '-//W3C//DTD SVG 1.1//EN'  'http://www.w3.org/Graphics/SVG/1.1/DTD/svg11.dtd'>
<svg enable-background="new 0 0 512 512" version="1.1" viewBox="0 0 512 512" xml:space="preserve" xmlns="http://www.w3.org/2000/svg">
	<path d="m224 435.8v-359.7c0-6.7-5.4-12.1-12.2-12.1h-71.6c-6.8 0-12.2 5.4-12.2 12.1v359.7c0 6.7 5.4 12.2 12.2 12.2h71.6c6.8 0 12.2-5.4 12.2-12.2z"/>
	<path d="m371.8 64h-71.6c-6.7 0-12.2 5.4-12.2 12.1v359.7c0 6.7 5.4 12.2 12.2 12.2h71.6c6.7 0 12.2-5.4 12.2-12.2v-359.7c0-6.7-5.4-12.1-12.2-12.1z"/>
</svg>